<?xml version="1.0" encoding="UTF-8" standalone="no"?>
<!-- Uploaded to: SVG Repo, www.svgrepo.com, Generator: SVG Repo Mixer Tools -->

<svg
   width="800"
   height="800"
   viewBox="0 0 15 15"
   fill="none"
   version="1.1"
   id="svg10"
   sodipodi:docname="lifebuoy-svgrepo-com.svg"
   xmlns:inkscape="http://www.inkscape.org/namespaces/inkscape"
   xmlns:sodipodi="http://sodipodi.sourceforge.net/DTD/sodipodi-0.dtd"
   xmlns="http://www.w3.org/2000/svg"
   xmlns:svg="http://www.w3.org/2000/svg">
  <defs
     id="defs14" />
  <sodipodi:namedview
     id="namedview12"
     pagecolor="#ffffff"
     bordercolor="#666666"
     borderopacity="1.0"
     inkscape:showpageshadow="2"
     inkscape:pageopacity="0.0"
     inkscape:pagecheckerboard="0"
     inkscape:deskcolor="#d1d1d1"
     showgrid="false" />
  <path
     d="m 5.40383,4.69657 -2.8419,-2.8419 c 2.82148,-2.472921 7.05478,-2.472894 9.87627,8e-5 L 9.59627,4.69664 C 8.35737,3.76781 6.64275,3.76779 5.40383,4.69657 Z"
     fill="#000000"
     id="path2"
     style="fill:#fdffff;fill-opacity:1" />
  <path
     d="m 10.3034,5.40375 c 0.9288,1.23892 0.9288,2.95357 0,4.19249 l 2.8419,2.84186 c 2.4729,-2.82144 2.4729,-7.05477 0,-9.87624 z"
     fill="#000000"
     id="path4"
     style="fill:#fdffff;fill-opacity:1" />
  <path
     d="m 9.59627,10.3034 c -1.23889,0.9288 -2.9535,0.9288 -4.19243,0 l -2.84189,2.8419 c 2.82148,2.473 7.05477,2.4729 9.87625,-10e-5 z"
     fill="#000000"
     id="path6"
     style="fill:#fdffff;fill-opacity:1" />
  <path
     d="m 4.6967,5.40366 c -0.92894,1.23896 -0.92893,2.95374 1e-5,4.1927 L 1.85483,12.4382 C -0.618272,9.61674 -0.618276,5.38328 1.85481,2.56177 Z"
     fill="#000000"
     id="path8"
     style="fill:#fdffff;fill-opacity:1" />
</svg>
